# xmcd
#
# Track frame offsets:
# 150
# 17900
# 33850
# 50005
# 66806
# 81730
# 98943
# 113112
# 129590
# 147515
# 162293
# 181092
# 196504
#
# Disc length: 2839 seconds
#
#
# Revision: 3
# Processed by: cddbd v1.4PL0 Copyright (c) Steve Scherf et al.
# Submitted via: FreeRIP 2.40 
#
DISCID=b20b150d
DTITLE=Walkiria Santos - Abra-te Césamo
DYEAR=2002
DGENRE=Forró
TTITLE0=Alvo Fácil
TTITLE1=Amor Perfeito
TTITLE2=Se Você Quiser
TTITLE3=De Corpo e Alma
TTITLE4=Abre-te Césamo
TTITLE5=Tempo ao Tempo
TTITLE6=Somente Tua
TTITLE7=Que Era Eu
TTITLE8=Você Não Me Ensinou a Te Esquecer
TTITLE9=Me Usa
TTITLE10=Você Robou Minha Vida
TTITLE11=O Amor Faz
TTITLE12=Amantes
EXTD=YEAR: 2002 ID3G: 100
EXTT0=
EXTT1=
EXTT2=
EXTT3=
EXTT4=
EXTT5=
EXTT6=
EXTT7=
EXTT8=
EXTT9=
EXTT10=
EXTT11=
EXTT12=
PLAYORDER=
